<svg id="Layer_1" data-name="Layer 1" xmlns="http://www.w3.org/2000/svg" viewBox="0 0 389.56 69.93"><defs><style>.cls-1{fill:#ed2024;}</style></defs><title>Artboard 1b</title><path d="M33.1,32.52H24.74V29.7a8.83,8.83,0,0,0-3,.55,9.3,9.3,0,0,0-2.84,1.68,10.57,10.57,0,0,0-2.31,2.86,13,13,0,0,0-1.43,4.11v22h7.75v7.56H.32V60.91H6.61l0-30.46H.32V22.88H14.88v6.3a18.61,18.61,0,0,1,1.79-2.62,12.17,12.17,0,0,1,2.2-2.11A9.53,9.53,0,0,1,21.55,23a9.7,9.7,0,0,1,3.19-.51h4.31q2,0,4.05.09Z"/><path d="M50.31,46.74a19.36,19.36,0,0,0,.29,3.54,18.56,18.56,0,0,0,.81,3.06A12.63,12.63,0,0,0,56.62,60a15.11,15.11,0,0,0,8.12,2.22,24.39,24.39,0,0,0,6.93-1,33.22,33.22,0,0,0,7.07-3.1L82,63.68a35.67,35.67,0,0,1-9,4.57,29.82,29.82,0,0,1-9.42,1.5A23.25,23.25,0,0,1,55,68.21a18.27,18.27,0,0,1-6.78-4.58,21.27,21.27,0,0,1-4.44-7.57A31.6,31.6,0,0,1,42.21,45.5a30.56,30.56,0,0,1,1.37-9.22,21.84,21.84,0,0,1,4.07-7.57,19.45,19.45,0,0,1,6.71-5.12,21.64,21.64,0,0,1,9.33-1.89,20.89,20.89,0,0,1,8.6,1.56,15.76,15.76,0,0,1,5.63,4.13,17.73,17.73,0,0,1,3.3,5.88A34.79,34.79,0,0,1,82.79,40c.14,1.12.24,2.25.28,3.39s.07,2.26.07,3.35ZM63.12,28.56a14.05,14.05,0,0,0-5,.81,10.1,10.1,0,0,0-3.63,2.34,11.26,11.26,0,0,0-2.4,3.72,22.2,22.2,0,0,0-1.34,4.92H74.38a22.24,22.24,0,0,0-.81-4.7,10.48,10.48,0,0,0-2-3.75,8.9,8.9,0,0,0-3.39-2.46A13,13,0,0,0,63.12,28.56Z"/><path d="M129,14.08a11,11,0,0,0-3.1-3,14.38,14.38,0,0,0-3.72-1.58,15.26,15.26,0,0,0-4-.55,19.75,19.75,0,0,0-5.85.77,12.3,12.3,0,0,0-4.16,2.09,8.79,8.79,0,0,0-2.49,3.08,8.45,8.45,0,0,0-.83,3.7,9.27,9.27,0,0,0,1,4.68,8.6,8.6,0,0,0,2.62,2.86,13.37,13.37,0,0,0,3.5,1.7c1.27.41,2.5.82,3.67,1.23l8.89,2.9a42.06,42.06,0,0,1,7.06,2.91,19.26,19.26,0,0,1,5.13,3.85,15.19,15.19,0,0,1,3.15,5.13,19.48,19.48,0,0,1,1.07,6.73,17.43,17.43,0,0,1-1.69,7.66,18.68,18.68,0,0,1-4.73,6.11,22.37,22.37,0,0,1-7.24,4.07A27.47,27.47,0,0,1,118,69.93a29,29,0,0,1-8.8-1.17,19.46,19.46,0,0,1-6.14-3.12,16.43,16.43,0,0,1-4-4.47A23.9,23.9,0,0,1,96.74,56H93.39V48.45h11.09q0,4.89,1,6.91a9.35,9.35,0,0,0,2.88,3.37,13.2,13.2,0,0,0,4.4,2,21.56,21.56,0,0,0,5.63.68,19.08,19.08,0,0,0,5.39-.7,11.82,11.82,0,0,0,4.09-2,9,9,0,0,0,2.6-3.25,10.09,10.09,0,0,0,.9-4.34,8.65,8.65,0,0,0-1.12-4.55,11.11,11.11,0,0,0-2.88-3.19,17.08,17.08,0,0,0-3.85-2.16c-1.4-.56-2.74-1-4-1.45L109.89,37a28.8,28.8,0,0,1-5.78-2.46,17.15,17.15,0,0,1-4.49-3.66,15.08,15.08,0,0,1-2.88-5,19.92,19.92,0,0,1-1-6.66A17.33,17.33,0,0,1,97.22,12a16.62,16.62,0,0,1,4.4-5.85,21.39,21.39,0,0,1,7.11-3.94A29.84,29.84,0,0,1,118.34.79a24.44,24.44,0,0,1,6.58.84A21,21,0,0,1,130.38,4a19.19,19.19,0,0,1,4.31,3.66,21.82,21.82,0,0,1,3.15,4.68h3.3v7.57H130.36A9.86,9.86,0,0,0,129,14.08Z"/><path d="M155.27,46.74a20.33,20.33,0,0,0,.28,3.54,17.63,17.63,0,0,0,.82,3.06A12.63,12.63,0,0,0,161.58,60a15.11,15.11,0,0,0,8.12,2.22,24.39,24.39,0,0,0,6.93-1,33.16,33.16,0,0,0,7.06-3.1l3.3,5.59a35.67,35.67,0,0,1-9,4.57,29.76,29.76,0,0,1-9.41,1.5A23.18,23.18,0,0,1,160,68.21a18.19,18.19,0,0,1-6.78-4.58,21.43,21.43,0,0,1-4.45-7.57,31.61,31.61,0,0,1-1.6-10.56,30.56,30.56,0,0,1,1.36-9.22,22,22,0,0,1,4.07-7.57,19.55,19.55,0,0,1,6.71-5.12,21.64,21.64,0,0,1,9.33-1.89,20.94,20.94,0,0,1,8.61,1.56,15.76,15.76,0,0,1,5.63,4.13,18.08,18.08,0,0,1,3.3,5.88A34,34,0,0,1,187.74,40c.15,1.12.24,2.25.29,3.39s.06,2.26.06,3.35Zm12.8-18.18a14,14,0,0,0-5,.81,9.93,9.93,0,0,0-3.63,2.34,11.26,11.26,0,0,0-2.4,3.72,22.2,22.2,0,0,0-1.34,4.92h23.63a21.61,21.61,0,0,0-.82-4.7,10.33,10.33,0,0,0-2-3.75,8.94,8.94,0,0,0-3.38-2.46A13,13,0,0,0,168.07,28.56Z"/><path d="M232,32.52h-8.36V29.7a8.83,8.83,0,0,0-3,.55,9.3,9.3,0,0,0-2.84,1.68,10.57,10.57,0,0,0-2.31,2.86,13,13,0,0,0-1.43,4.11v22h7.75v7.56H199.23V60.91h6.29l0-30.46h-6.33V22.88h14.56v6.3a18.61,18.61,0,0,1,1.79-2.62,12.17,12.17,0,0,1,2.2-2.11A9.53,9.53,0,0,1,220.46,23a9.7,9.7,0,0,1,3.19-.51H228q2,0,4,.09Z"/><path d="M238,22.88h15.76v7.57h-4.27l11.27,31.42,11-31.42h-2.77V22.88h14.43v7.57h-3.92L264.53,69.18h-8.09L241.56,30.45H238Z"/><path d="M297.63,46.74a20.33,20.33,0,0,0,.28,3.54,17.63,17.63,0,0,0,.82,3.06A12.63,12.63,0,0,0,303.94,60a15.11,15.11,0,0,0,8.12,2.22,24.39,24.39,0,0,0,6.93-1,33.22,33.22,0,0,0,7.07-3.1l3.3,5.59a35.73,35.73,0,0,1-9,4.57,29.76,29.76,0,0,1-9.41,1.5,23.22,23.22,0,0,1-8.56-1.54,18.19,18.19,0,0,1-6.78-4.58,21.27,21.27,0,0,1-4.44-7.57,31.6,31.6,0,0,1-1.61-10.56,30.56,30.56,0,0,1,1.36-9.22A22,22,0,0,1,295,28.71a19.58,19.58,0,0,1,6.72-5.12A21.57,21.57,0,0,1,311,21.7a20.91,20.91,0,0,1,8.61,1.56,15.76,15.76,0,0,1,5.63,4.13,18.08,18.08,0,0,1,3.3,5.88A34,34,0,0,1,330.1,40c.15,1.12.25,2.25.29,3.39s.07,2.26.07,3.35Zm12.8-18.18a14,14,0,0,0-5,.81,10,10,0,0,0-3.63,2.34,11.26,11.26,0,0,0-2.4,3.72,22.2,22.2,0,0,0-1.34,4.92H321.7a21.61,21.61,0,0,0-.82-4.7,10.31,10.31,0,0,0-1.95-3.75,8.9,8.9,0,0,0-3.39-2.46A13,13,0,0,0,310.43,28.56Z"/><path d="M368.48,0h14.39V60.91h6.69v7.56H374.68V64.73a15.74,15.74,0,0,1-5.1,3.5,16.46,16.46,0,0,1-6.6,1.26,22.86,22.86,0,0,1-8.61-1.61,19.41,19.41,0,0,1-6.91-4.71,21.87,21.87,0,0,1-4.57-7.61,30,30,0,0,1-1.65-10.32,28,28,0,0,1,1.58-9.62,21.1,21.1,0,0,1,4.49-7.39,20.16,20.16,0,0,1,7-4.75,25.26,25.26,0,0,1,15.14-1A16,16,0,0,1,374.68,25V7.57h-6.2ZM364,62.36a15.24,15.24,0,0,0,6.12-1.08A14.16,14.16,0,0,0,374.68,58V32.52a13.62,13.62,0,0,0-5.06-2.68,20.69,20.69,0,0,0-5.85-.84,13.85,13.85,0,0,0-5.46,1.08,12.77,12.77,0,0,0-4.46,3.15,14.69,14.69,0,0,0-3,5.06,19.86,19.86,0,0,0-1.1,6.86,23.64,23.64,0,0,0,1.06,7.44A15.27,15.27,0,0,0,353.74,58a12.17,12.17,0,0,0,4.53,3.28A14.89,14.89,0,0,0,364,62.36Z"/><rect class="cls-1" y="0.67" width="82.5" height="12.25"/></svg>